<svg width="24" height="24" viewBox="0 0 24 24" fill="none" xmlns="http://www.w3.org/2000/svg">
<g clip-path="url(#clip0_1_3344)">
<path fill-rule="evenodd" clip-rule="evenodd" d="M5.6665 4.49984C5.6665 4.0396 6.0396 3.6665 6.49984 3.6665H21.4998C21.9601 3.6665 22.3332 4.0396 22.3332 4.49984V6.65466C22.3332 7.09669 22.1576 7.52061 21.845 7.83317L16.4998 13.1783V17.8332C16.4998 18.1488 16.3215 18.4374 16.0392 18.5785L12.7058 20.2452C12.4475 20.3744 12.1407 20.3606 11.8951 20.2087C11.6494 20.0569 11.4998 19.7887 11.4998 19.4998V13.1783L6.15466 7.83317C5.8421 7.52061 5.6665 7.09669 5.6665 6.65466V4.49984ZM7.33317 5.33317V6.65466L12.9224 12.2439C13.0787 12.4002 13.1665 12.6122 13.1665 12.8332V18.1515L14.8332 17.3181V12.8332C14.8332 12.6122 14.921 12.4002 15.0772 12.2439L20.6665 6.65466V5.33317H7.33317Z" fill="#6148FF"/>
</g>
<defs>
<clipPath id="clip0_1_3344">
<rect width="16.6667" height="16.6667" fill="white" transform="translate(5.6665 3.6665)"/>
</clipPath>
</defs>
</svg>
